<?xml version="1.0" standalone="no"?>
<!DOCTYPE svg PUBLIC "-//W3C//DTD SVG 20010904//EN"
 "http://www.w3.org/TR/2001/REC-SVG-20010904/DTD/svg10.dtd">
<svg version="1.0" xmlns="http://www.w3.org/2000/svg"
 width="987.000000pt" height="981.000000pt" viewBox="0 0 987.000000 981.000000"
 preserveAspectRatio="xMidYMid meet">

<g transform="translate(0.000000,981.000000) scale(0.100000,-0.100000)"
 stroke="none">
<path d="M4725 9403 c-697 -28 -1393 -224 -2000 -562 -169 -94 -469 -295 -616
-413 -536 -428 -984 -991 -1271 -1597 -418 -881 -538 -1878 -343 -2837 236
-1157 925 -2182 1910 -2839 206 -137 321 -204 530 -307 1204 -592 2645 -609
3861 -44 506 235 966 561 1349 958 161 166 245 265 388 457 724 970 1023 2201
827 3409 -169 1040 -709 2000 -1516 2692 -865 743 -1979 1130 -3119 1083z
m538 -758 c739 -71 1417 -347 2002 -813 157 -125 454 -423 583 -584 375 -471
635 -1026 752 -1608 58 -287 64 -365 64 -740 0 -375 -6 -453 -64 -740 -157
-777 -549 -1476 -1132 -2017 -583 -540 -1274 -865 -2088 -980 -181 -25 -760
-25 -940 0 -618 88 -1136 285 -1635 621 -354 238 -711 588 -970 951 -352 493
-579 1084 -662 1720 -22 174 -25 680 -5 845 95 763 364 1403 834 1982 118 145
381 408 526 526 577 468 1271 760 1977 831 61 6 124 13 140 15 85 9 487 4 618
-9z"/>
<path d="M4530 7370 l0 -380 -615 0 -615 0 0 -455 0 -455 950 0 c523 0 950 -2
950 -4 0 -15 -1576 -2171 -1722 -2356 l-178 -225 3 -345 2 -345 613 -3 612 -2
0 -375 0 -375 380 0 380 0 0 375 0 375 615 0 615 0 0 460 0 460 -949 2 -949 3
781 1076 c430 591 857 1171 950 1288 l167 213 0 344 0 344 -615 0 -615 0 0
380 0 380 -380 0 -380 0 0 -380z"/>
</g>
</svg>
