<?xml version="1.0" standalone="no"?>
<!DOCTYPE svg PUBLIC "-//W3C//DTD SVG 20010904//EN"
 "http://www.w3.org/TR/2001/REC-SVG-20010904/DTD/svg10.dtd">
<svg version="1.0" xmlns="http://www.w3.org/2000/svg"
 width="300.000000pt" height="284.000000pt" viewBox="0 0 300.000000 284.000000"
 preserveAspectRatio="xMidYMid meet">

<g transform="translate(0.000000,284.000000) scale(0.100000,-0.100000)"
stroke="none">
<path d="M929 2375 c-162 -40 -301 -151 -366 -292 -26 -55 -53 -168 -53 -221
l0 -33 118 3 117 3 7 66 c13 115 69 209 151 250 106 55 200 62 303 25 91 -33
147 -89 180 -180 30 -84 30 -144 0 -233 -45 -132 -92 -193 -524 -672 l-311
-345 -3 -88 -3 -88 935 2 935 3 0 95 0 95 -457 3 c-252 1 -458 4 -458 7 0 5
33 61 75 125 12 19 190 303 395 630 205 327 381 607 391 622 15 22 19 45 19
122 l0 95 -577 5 c-318 3 -632 8 -698 10 -83 3 -137 1 -176 -9z m1171 -215 c0
-5 -28 -54 -62 -107 -34 -54 -82 -131 -107 -171 -54 -86 -92 -147 -139 -222
-19 -30 -45 -71 -57 -90 -12 -19 -38 -60 -57 -90 -19 -30 -127 -201 -239 -380
-111 -179 -208 -328 -213 -332 -17 -12 -376 -10 -376 2 0 6 109 129 243 273
385 418 466 524 521 689 36 107 36 233 0 333 -13 39 -27 78 -31 88 -5 16 12
17 256 17 166 0 261 -4 261 -10z"/>
</g>
</svg>
